<svg
            width="100px"
            height="18px"
            viewBox="0 0 100 18"
            version="1.1"
            xmlns="http://www.w3.org/2000/svg"
            xmlns:xlink="http://www.w3.org/1999/xlink"
          >
            <g stroke="none" stroke-width="1" fill="none" fill-rule="evenodd">
              <g fill="#587679">
                <g>
                  <path
                    d="M98.7460815,5.92476489 C98.1191223,5.92476489 97.6175549,5.40752351 97.6175549,4.78056426 C97.6175549,4.15360502 98.1191223,3.63636364 98.7460815,3.63636364 C99.3887147,3.63636364 99.8902821,4.13793103 99.8902821,4.78056426 C99.8902821,5.09404389 99.7805643,5.37617555 99.5611285,5.5799373 C99.3416928,5.79937304 99.0438871,5.92476489 98.7460815,5.92476489 Z M98.7460815,3.90282132 C98.2601881,3.90282132 97.8683386,4.29467085 97.8683386,4.78056426 C97.8683386,5.2507837 98.2601881,5.65830721 98.7460815,5.65830721 C99.2319749,5.65830721 99.6238245,5.28213166 99.6238245,4.79623824 C99.6238245,4.56112853 99.5297806,4.34169279 99.3730408,4.18495298 C99.200627,3.9968652 98.9811912,3.90282132 98.7460815,3.90282132 Z M99.2633229,5.31347962 L98.9655172,5.31347962 L98.7617555,4.89028213 L98.6363636,4.89028213 L98.6363636,5.31347962 L98.369906,5.31347962 L98.369906,4.21630094 L98.7931034,4.21630094 C99.0752351,4.21630094 99.2633229,4.31034483 99.2633229,4.54545455 C99.2633229,4.68652038 99.184953,4.79623824 99.0595611,4.84326019 L99.2633229,5.31347962 Z M98.6206897,4.43573668 L98.6206897,4.67084639 L98.7460815,4.67084639 C98.9341693,4.67084639 98.9655172,4.63949843 98.9655172,4.56112853 C98.9655172,4.48275862 98.9341693,4.43573668 98.7460815,4.43573668 L98.6206897,4.43573668 Z"
                    fill-rule="nonzero"
                  ></path>
                  <g transform="translate(18.965517, 3.605016)">
                    <polygon points="7.36677116 0.0313479624 0.0626959248 0.0313479624 0.0626959248 2.00626959 2.5862069 2.00626959 2.5862069 10.4858934 4.82758621 10.4858934 4.82758621 2.00626959 7.36677116 2.00626959"></polygon>
                    <path
                      d="M9.93730408,2.11598746 C7.5862069,2.11598746 5.68965517,4.04388715 5.68965517,6.41065831 C5.68965517,8.77742947 7.5862069,10.7053292 9.93730408,10.7053292 C12.2884013,10.7053292 14.184953,8.77742947 14.184953,6.41065831 C14.184953,4.04388715 12.2884013,2.11598746 9.93730408,2.11598746 Z M9.93730408,8.7460815 C8.68338558,8.7460815 7.6645768,7.71159875 7.6645768,6.42633229 C7.6645768,5.14106583 8.68338558,4.10658307 9.93730408,4.10658307 C11.1912226,4.10658307 12.2100313,5.14106583 12.2100313,6.42633229 C12.2100313,7.69592476 11.1912226,8.7460815 9.93730408,8.7460815 Z"
                      fill-rule="nonzero"
                    ></path>
                    <path d="M25.3918495,2.86833856 C24.8589342,2.36677116 24.169279,2.11598746 23.4169279,2.11598746 C22.4294671,2.11598746 21.4576803,2.69592476 21.0658307,3.51097179 C20.7210031,2.77429467 20.015674,2.11598746 18.7147335,2.11598746 C17.6489028,2.11598746 16.9278997,2.75862069 16.7241379,3.1661442 L16.7084639,3.1661442 L16.7084639,2.36677116 L14.7335423,2.36677116 L14.7335423,10.5015674 L16.7711599,10.5015674 L16.7711599,5.86206897 C16.7711599,4.96865204 17.1003135,4.05956113 18.1818182,4.05956113 C19.200627,4.05956113 19.4984326,4.89028213 19.4984326,5.67398119 L19.4984326,10.5015674 L21.5830721,10.5015674 L21.5830721,5.7523511 C21.5830721,4.59247649 22.3040752,4.05956113 22.9623824,4.05956113 C23.8087774,4.05956113 24.2946708,4.65517241 24.2946708,5.68965517 L24.2946708,10.5172414 L26.3636364,10.5172414 L26.3636364,5.43887147 C26.3636364,4.10658307 25.8934169,3.32288401 25.3918495,2.86833856 Z"></path>
                    <path d="M37.7272727,2.86833856 C37.1943574,2.36677116 36.5047022,2.11598746 35.7523511,2.11598746 C34.7648903,2.11598746 33.7931034,2.69592476 33.4012539,3.51097179 C33.0564263,2.77429467 32.3510972,2.11598746 31.0501567,2.11598746 C29.984326,2.11598746 29.2633229,2.75862069 29.0595611,3.1661442 L29.0438871,3.1661442 L29.0438871,2.36677116 L27.0532915,2.36677116 L27.0532915,10.5015674 L29.1065831,10.5015674 L29.1065831,5.86206897 C29.1065831,4.96865204 29.4357367,4.05956113 30.5172414,4.05956113 C31.5360502,4.05956113 31.8338558,4.89028213 31.8338558,5.67398119 L31.8338558,10.5015674 L33.9184953,10.5015674 L33.9184953,5.7523511 C33.9184953,4.59247649 34.6394984,4.05956113 35.2978056,4.05956113 C36.1442006,4.05956113 36.630094,4.65517241 36.630094,5.68965517 L36.630094,10.5172414 L38.6990596,10.5172414 L38.6990596,5.43887147 C38.6990596,4.10658307 38.2131661,3.32288401 37.7272727,2.86833856 Z"></path>
                    <polygon points="42.8056426 7.6645768 40.846395 2.36677116 38.5579937 2.36677116 41.630094 10.3761755 41.661442 10.4858934 40.5485893 13.5579937 42.6959248 13.5579937 46.8025078 2.36677116 44.6238245 2.36677116"></polygon>
                    <path d="M52.3667712,0.0313479624 L52.3667712,6.84952978 C52.3667712,7.89968652 52.1159875,8.55799373 51.2539185,8.55799373 C50.7210031,8.55799373 50.3134796,8.30721003 49.8589342,7.93103448 L49.169279,9.87460815 C49.6708464,10.3134796 50.5956113,10.7210031 51.4420063,10.7210031 C53.4326019,10.7210031 54.5611285,9.23197492 54.5611285,7.0846395 L54.5611285,0.0470219436 L52.3667712,0.0470219436 L52.3667712,0.0313479624 Z"></path>
                    <path
                      d="M59.4043887,2.11598746 C57.0532915,2.11598746 55.1567398,4.04388715 55.1567398,6.41065831 C55.1567398,8.77742947 57.0532915,10.7053292 59.4043887,10.7053292 C61.7554859,10.7053292 63.6520376,8.77742947 63.6520376,6.41065831 C63.6520376,4.04388715 61.7554859,2.11598746 59.4043887,2.11598746 Z M59.4043887,8.7460815 C58.1504702,8.7460815 57.1316614,7.71159875 57.1316614,6.42633229 C57.1316614,5.14106583 58.1504702,4.10658307 59.4043887,4.10658307 C60.6583072,4.10658307 61.677116,5.14106583 61.677116,6.42633229 C61.677116,7.69592476 60.6583072,8.7460815 59.4043887,8.7460815 Z"
                      fill-rule="nonzero"
                    ></path>
                    <path d="M68.1974922,2.11598746 C67.4137931,2.11598746 66.5987461,2.55485893 66.2539185,3.13479624 L66.2382445,3.13479624 L66.2382445,0.0313479624 L64.200627,0.0313479624 L64.200627,10.4858934 L66.2539185,10.4858934 L66.2539185,5.95611285 C66.2539185,4.45141066 67.2413793,4.04388715 67.7742947,4.04388715 C68.338558,4.04388715 69.3103448,4.29467085 69.3103448,5.95611285 L69.3103448,10.4858934 L71.3949843,10.4858934 L71.3949843,5.59561129 C71.3636364,3.21316614 69.7178683,2.11598746 68.1974922,2.11598746 Z"></path>
                    <path d="M76.0658307,2.11598746 C75.2978056,2.11598746 74.4043887,2.53918495 74.0595611,3.1661442 L74.0438871,3.1661442 L74.0438871,2.36677116 L72.0532915,2.36677116 L72.0532915,10.5015674 L74.1065831,10.5015674 L74.1065831,5.95611285 C74.1065831,4.45141066 75.0940439,4.04388715 75.6269592,4.04388715 C76.1912226,4.04388715 77.1630094,4.29467085 77.1630094,5.95611285 L77.1630094,10.4858934 L79.2476489,10.4858934 L79.2476489,5.59561129 C79.2319749,3.21316614 77.5862069,2.11598746 76.0658307,2.11598746 Z"></path>
                  </g>
                  <g>
                    <rect
                      x="6.89655172"
                      y="6.89655172"
                      width="3.44827586"
                      height="6.89655172"
                    ></rect>
                    <rect
                      x="0"
                      y="0"
                      width="10.3448276"
                      height="3.44827586"
                    ></rect>
                    <rect
                      x="0"
                      y="6.89655172"
                      width="3.44827586"
                      height="6.89655172"
                    ></rect>
                  </g>
                </g>
                <g>
                  <rect
                    x="6.89655172"
                    y="6.89655172"
                    width="3.44827586"
                    height="6.89655172"
                  ></rect>
                  <rect
                    x="0"
                    y="0"
                    width="10.3448276"
                    height="3.44827586"
                  ></rect>
                  <rect
                    x="0"
                    y="6.89655172"
                    width="3.44827586"
                    height="6.89655172"
                  ></rect>
                </g>
              </g>
            </g>
          </svg>