<svg width="20px" height="14px" viewBox="0 0 20 14" version="1.1" xmlns="http://www.w3.org/2000/svg" xmlns:xlink="http://www.w3.org/1999/xlink">
    <!-- Generator: Sketch 49.1 (51147) - http://www.bohemiancoding.com/sketch -->
    <defs></defs>
    <g stroke="none" stroke-width="1" fill="none" fill-rule="evenodd">
        <g fill="#000000" fill-rule="nonzero">
            <path d="M0.276795005,1.61914672 C0.459937565,1.78772112 0.684703434,1.89386056 0.938605619,1.89386056 C1.09885536,1.89386056 1.26118626,1.89386056 1.421436,1.89386056 C1.85848075,1.89386056 2.29760666,1.89386056 2.7346514,1.89386056 C3.38189386,1.89386056 4.02913632,1.89386056 4.67637877,1.89386056 C5.46722164,1.89386056 6.25598335,1.89386056 7.04682622,1.89386056 C7.91259105,1.89386056 8.77627471,1.89386056 9.64203954,1.89386056 C10.516129,1.89386056 11.3881374,1.89386056 12.2622268,1.89386056 C13.0759625,1.89386056 13.8917794,1.89386056 14.7055151,1.89386056 C15.3943809,1.89386056 16.0811655,1.89386056 16.7700312,1.89386056 C17.2653486,1.89386056 17.760666,1.89386056 18.2559834,1.89386056 C18.491155,1.89386056 18.7242456,1.89594173 18.9594173,1.89386056 C18.9698231,1.89386056 18.9802289,1.89386056 18.9906348,1.89386056 C19.2299688,1.89386056 19.483871,1.78980229 19.6524454,1.61914672 C19.8147763,1.45681582 19.937565,1.19042664 19.9271592,0.957336108 C19.9167534,0.715920916 19.8376691,0.464099896 19.6524454,0.295525494 C19.4693028,0.126951093 19.2445369,0.0208116545 18.9906348,0.0208116545 C18.830385,0.0208116545 18.6680541,0.0208116545 18.5078044,0.0208116545 C18.0707596,0.0208116545 17.6316337,0.0208116545 17.194589,0.0208116545 C16.5473465,0.0208116545 15.9001041,0.0208116545 15.2528616,0.0208116545 C14.4620187,0.0208116545 13.673257,0.0208116545 12.8824142,0.0208116545 C12.0166493,0.0208116545 11.1529657,0.0208116545 10.2872008,0.0208116545 C9.41311134,0.0208116545 8.54110302,0.0208116545 7.66701353,0.0208116545 C6.85327784,0.0208116545 6.03746098,0.0208116545 5.22372529,0.0208116545 C4.53485952,0.0208116545 3.84807492,0.0208116545 3.15920916,0.0208116545 C2.66389178,0.0208116545 2.1685744,0.0208116545 1.67325702,0.0208116545 C1.43808533,0.0208116545 1.2049948,0.0187304891 0.969823101,0.0208116545 C0.959417274,0.0208116545 0.949011446,0.0208116545 0.938605619,0.0208116545 C0.699271592,0.0208116545 0.445369407,0.124869927 0.276795005,0.295525494 C0.1144641,0.4578564 -0.00832466181,0.724245578 0.00208116545,0.957336108 C0.0145681582,1.20083247 0.0936524454,1.45057232 0.276795005,1.61914672 Z"></path>
            <path d="M19.7148803,5.89386056 C19.5317378,5.72528616 19.3069719,5.61914672 19.0530697,5.61914672 C18.89282,5.61914672 18.7304891,5.61914672 18.5702393,5.61914672 C18.1331946,5.61914672 17.6940687,5.61914672 17.2570239,5.61914672 C16.6097815,5.61914672 15.962539,5.61914672 15.3152966,5.61914672 C14.5244537,5.61914672 13.735692,5.61914672 12.9448491,5.61914672 C12.0790843,5.61914672 11.2154006,5.61914672 10.3496358,5.61914672 C9.47554631,5.61914672 8.60353798,5.61914672 7.72944849,5.61914672 C6.9157128,5.61914672 6.09989594,5.61914672 5.28616025,5.61914672 C4.59729448,5.61914672 3.91050989,5.61914672 3.22164412,5.61914672 C2.72632674,5.61914672 2.23100937,5.61914672 1.73569199,5.61914672 C1.50052029,5.61914672 1.26742976,5.61706556 1.03225806,5.61914672 C1.02185224,5.61914672 1.01144641,5.61914672 1.00104058,5.61914672 C0.761706556,5.61914672 0.50780437,5.72320499 0.339229969,5.89386056 C0.176899063,6.05619147 0.0541103018,6.32258065 0.064516129,6.55567118 C0.0749219563,6.79708637 0.154006243,7.04890739 0.339229969,7.21748179 C0.522372529,7.38605619 0.747138398,7.49219563 1.00104058,7.49219563 C1.16129032,7.49219563 1.32362123,7.49219563 1.48387097,7.49219563 C1.92091571,7.49219563 2.36004162,7.49219563 2.79708637,7.49219563 C3.44432882,7.49219563 4.09157128,7.49219563 4.73881374,7.49219563 C5.52965661,7.49219563 6.31841831,7.49219563 7.10926119,7.49219563 C7.97502601,7.49219563 8.83870968,7.49219563 9.70447451,7.49219563 C10.578564,7.49219563 11.4505723,7.49219563 12.3246618,7.49219563 C13.1383975,7.49219563 13.9542144,7.49219563 14.7679501,7.49219563 C15.4568158,7.49219563 16.1436004,7.49219563 16.8324662,7.49219563 C17.3277836,7.49219563 17.8231009,7.49219563 18.3184183,7.49219563 C18.55359,7.49219563 18.7866805,7.4942768 19.0218522,7.49219563 C19.0322581,7.49219563 19.0426639,7.49219563 19.0530697,7.49219563 C19.2924037,7.49219563 19.5463059,7.38813736 19.7148803,7.21748179 C19.8772112,7.05515088 20,6.78876171 19.9895942,6.55567118 C19.9771072,6.31425598 19.8980229,6.06243496 19.7148803,5.89386056 Z"></path>
            <path d="M19.7148803,11.5171696 C19.5317378,11.3485952 19.3069719,11.2424558 19.0530697,11.2424558 C18.89282,11.2424558 18.7304891,11.2424558 18.5702393,11.2424558 C18.1331946,11.2424558 17.6940687,11.2424558 17.2570239,11.2424558 C16.6097815,11.2424558 15.962539,11.2424558 15.3152966,11.2424558 C14.5244537,11.2424558 13.735692,11.2424558 12.9448491,11.2424558 C12.0790843,11.2424558 11.2154006,11.2424558 10.3496358,11.2424558 C9.47554631,11.2424558 8.60353798,11.2424558 7.72944849,11.2424558 C6.9157128,11.2424558 6.09989594,11.2424558 5.28616025,11.2424558 C4.59729448,11.2424558 3.91050989,11.2424558 3.22164412,11.2424558 C2.72632674,11.2424558 2.23100937,11.2424558 1.73569199,11.2424558 C1.50052029,11.2424558 1.26742976,11.2403746 1.03225806,11.2424558 C1.02185224,11.2424558 1.01144641,11.2424558 1.00104058,11.2424558 C0.761706556,11.2424558 0.50780437,11.346514 0.339229969,11.5171696 C0.176899063,11.6795005 0.0541103018,11.9458897 0.064516129,12.1789802 C0.0749219563,12.4203954 0.154006243,12.6722164 0.339229969,12.8407908 C0.522372529,13.0093652 0.747138398,13.1155047 1.00104058,13.1155047 C1.16129032,13.1155047 1.32362123,13.1155047 1.48387097,13.1155047 C1.92091571,13.1155047 2.36004162,13.1155047 2.79708637,13.1155047 C3.44432882,13.1155047 4.09157128,13.1155047 4.73881374,13.1155047 C5.52965661,13.1155047 6.31841831,13.1155047 7.10926119,13.1155047 C7.97502601,13.1155047 8.83870968,13.1155047 9.70447451,13.1155047 C10.578564,13.1155047 11.4505723,13.1155047 12.3246618,13.1155047 C13.1383975,13.1155047 13.9542144,13.1155047 14.7679501,13.1155047 C15.4568158,13.1155047 16.1436004,13.1155047 16.8324662,13.1155047 C17.3277836,13.1155047 17.8231009,13.1155047 18.3184183,13.1155047 C18.55359,13.1155047 18.7866805,13.1175858 19.0218522,13.1155047 C19.0322581,13.1155047 19.0426639,13.1155047 19.0530697,13.1155047 C19.2924037,13.1155047 19.5463059,13.0114464 19.7148803,12.8407908 C19.8772112,12.6784599 20,12.4120708 19.9895942,12.1789802 C19.9771072,11.937565 19.8980229,11.685744 19.7148803,11.5171696 Z"></path>
        </g>
    </g>
</svg>